<?xml version="1.0" encoding="utf-8"?>
<!-- Generator: Adobe Illustrator 19.0.0, SVG Export Plug-In . SVG Version: 6.00 Build 0)  -->
<svg version="1.1" id="layer" xmlns="http://www.w3.org/2000/svg" xmlns:xlink="http://www.w3.org/1999/xlink" x="0px" y="0px"
	 viewBox="-153 -46 652 652" style="enable-background:new -153 -46 652 652;" xml:space="preserve">
<style type="text/css">
	.st0{fill:#ED1D24;}
	.st1{fill:#2E74B6;}
</style>
<g>
	<path class="st0" d="M269.3,151.6c0,0,150.4,36.6,200.1,199.9C469.4,351.5,459.1,184.9,269.3,151.6"/>
</g>
<polygon class="st1" points="439.1,167.4 420.3,200.7 452.5,180.7 "/>
<g>
	<path class="st1" d="M351.2,268h9.7l15.1-13.7c0,0,4.4-3.6,0-8.1c-4.4-4.4-11.4,5.4-11.4,5.4L351.2,268z"/>
</g>
<polygon class="st0" points="176.6,399.1 176.6,370.1 183,370.1 183,393.1 198.7,393.1 198.7,399.1 "/>
<g>
	<path class="st0" d="M207.9,378.2c-1.6,1.6-2.4,3.7-2.4,6.3c0,2.6,0.8,4.7,2.4,6.3c1.6,1.6,3.6,2.4,5.9,2.4c2.3,0,4.3-0.8,5.9-2.4
		c1.6-1.6,2.4-3.7,2.4-6.4c0-2.6-0.8-4.7-2.5-6.3c-1.6-1.6-3.6-2.4-5.8-2.4C211.5,375.8,209.5,376.6,207.9,378.2 M198.8,384.6
		c0-4.2,1.4-7.7,4.3-10.6c2.9-2.9,6.4-4.3,10.6-4.3c4.2,0,7.7,1.4,10.6,4.3c2.9,2.9,4.3,6.4,4.3,10.7c0,4.3-1.4,7.8-4.3,10.7
		c-2.9,2.9-6.4,4.3-10.6,4.3c-4.2,0-7.7-1.4-10.6-4.3C200.3,392.4,198.8,388.8,198.8,384.6"/>
	<path class="st0" d="M245,388.6v-5.8h13.5v11.7c-1.4,1.6-3.2,2.8-5.2,3.7c-2,0.9-4.2,1.3-6.5,1.3c-4.6,0-8.3-1.4-11.3-4.1
		c-2.9-2.8-4.4-6.4-4.4-10.8c0-4.2,1.4-7.8,4.2-10.7c2.8-2.9,6.4-4.3,10.8-4.3c2.5,0,4.8,0.5,7,1.4c2.2,1,3.7,2.2,4.8,3.8l-4.4,4
		c-1.8-2-4.1-3-7-3c-2.6,0-4.7,0.8-6.3,2.3c-1.5,1.6-2.3,3.7-2.3,6.4c0,2.8,0.8,4.9,2.5,6.5c1.7,1.5,3.9,2.3,6.6,2.3
		c2.1,0,3.9-0.6,5.5-1.7v-3.1H245z"/>
</g>
<rect x="263.1" y="370.1" class="st0" width="6.4" height="29"/>
<g>
	<path class="st0" d="M289,393c0.7-0.5,1.1-1.1,1.1-1.9c0-0.8-0.4-1.4-1.2-2c-0.8-0.5-1.8-1-3-1.3c-1.2-0.3-2.5-0.7-3.9-1.1
		c-1.4-0.4-2.7-0.9-3.9-1.5c-1.2-0.6-2.2-1.5-3-2.6c-0.8-1.2-1.2-2.6-1.2-4.2c0-2.4,1-4.5,3.1-6.2c2.1-1.7,4.8-2.6,8.1-2.6
		c4.9,0,8.7,1.8,11.3,5.3l-4.3,4.1c-2.1-2.3-4.5-3.5-7.3-3.5c-2.9,0-4.3,0.9-4.3,2.7c0,0.7,0.4,1.2,1.2,1.7c0.8,0.5,1.8,0.8,3,1.2
		c1.2,0.3,2.5,0.7,3.9,1.1c1.4,0.4,2.7,0.9,3.9,1.5c1.2,0.6,2.2,1.5,3,2.7c0.8,1.2,1.2,2.6,1.2,4.3c0,2.6-1,4.8-3.1,6.6
		c-2.1,1.8-4.7,2.6-7.8,2.6c-3.3,0-6.1-0.7-8.4-2c-2.3-1.3-4-3-5-5.1l4.7-3.9c1,1.5,2.2,2.8,3.7,3.6c1.5,0.9,3.1,1.3,4.9,1.3
		C287.1,393.7,288.3,393.5,289,393"/>
</g>
<polygon class="st0" points="298,376.1 298,370.1 323,370.1 323,376.1 313.7,376.1 313.7,399.1 307.3,399.1 307.3,376.1 "/>
<rect x="325.9" y="370.1" class="st0" width="6.4" height="29"/>
<g>
	<path class="st0" d="M359.8,389.5l3.8,4.1c-1.3,1.9-3,3.4-5.2,4.4c-2.2,1-4.5,1.6-7.1,1.6c-4.5,0-8.1-1.4-10.8-4.1
		c-2.7-2.7-4-6.4-4-10.9c0-4.2,1.4-7.8,4.2-10.7c2.8-2.9,6.4-4.3,10.8-4.3c2.6,0,4.9,0.5,7,1.5c2.1,1,3.6,2.3,4.7,4l-4.3,4
		c-0.8-1.1-1.9-1.9-3.1-2.4c-1.3-0.6-2.5-0.8-3.8-0.8c-2.6,0-4.7,0.8-6.4,2.4c-1.6,1.6-2.4,3.7-2.4,6.4c0,2.6,0.8,4.7,2.5,6.3
		c1.6,1.6,3.7,2.4,6.2,2.4C355.1,393.3,357.8,392.1,359.8,389.5"/>
	<path class="st0" d="M380.7,393c0.7-0.5,1.1-1.1,1.1-1.9c0-0.8-0.4-1.4-1.2-2c-0.8-0.5-1.8-1-3-1.3s-2.5-0.7-3.9-1.1
		c-1.4-0.4-2.7-0.9-3.9-1.5c-1.2-0.6-2.2-1.5-3-2.6c-0.8-1.2-1.2-2.6-1.2-4.2c0-2.4,1-4.5,3.1-6.2c2.1-1.7,4.8-2.6,8.1-2.6
		c4.9,0,8.7,1.8,11.3,5.3l-4.3,4.1c-2.1-2.3-4.5-3.5-7.3-3.5c-2.9,0-4.3,0.9-4.3,2.7c0,0.7,0.4,1.2,1.2,1.7c0.8,0.5,1.8,0.8,3,1.2
		c1.2,0.3,2.5,0.7,3.9,1.1c1.4,0.4,2.7,0.9,3.9,1.5c1.2,0.6,2.2,1.5,3,2.7c0.8,1.2,1.2,2.6,1.2,4.3c0,2.6-1,4.8-3.1,6.6
		c-2.1,1.8-4.7,2.6-7.8,2.6c-3.3,0-6.1-0.7-8.4-2c-2.3-1.3-4-3-5-5.1l4.7-3.9c1,1.5,2.2,2.8,3.7,3.6c1.5,0.9,3.1,1.3,4.9,1.3
		C378.8,393.7,379.9,393.5,380.7,393"/>
	<path class="st1" d="M-97.4,319.6h-15.9v15.7h15c5.1,0,8.8-0.6,10.9-1.8c2.2-1.2,3.2-3.3,3.2-6.2c0-2.7-1-4.7-3-5.9
		C-89.1,320.2-92.5,319.6-97.4,319.6 M-98.5,289.8h-14.7V304H-97c3.4,0,6-0.6,7.8-1.7c1.8-1.1,2.7-2.8,2.7-4.8
		c0-2.7-0.9-4.6-2.6-5.8C-90.8,290.5-94,289.8-98.5,289.8 M-130.6,351.4v-77.6h34.9c18,0,27,6.6,27,19.9c0,6.7-2.5,12.3-7.6,16.6
		c6.8,3.2,10.2,9.2,10.2,18.1c0,7.8-2.8,13.6-8.3,17.4c-5.5,3.8-12.9,5.7-22.2,5.7H-130.6z"/>
	<path class="st1" d="M-34.2,295.6c-4.4,4.4-6.5,10-6.5,17c0,6.9,2.2,12.6,6.5,17c4.4,4.4,9.6,6.5,15.8,6.5c6.3,0,11.6-2.2,15.9-6.5
		c4.2-4.3,6.4-10,6.4-17c0-6.9-2.2-12.6-6.6-17c-4.4-4.4-9.6-6.5-15.6-6.5C-24.6,289.1-29.9,291.2-34.2,295.6 M-58.8,312.6
		c0-11.2,3.9-20.7,11.7-28.5c7.8-7.8,17.3-11.6,28.6-11.6c11.2,0,20.8,3.8,28.5,11.5c7.8,7.7,11.7,17.2,11.7,28.7
		c0,11.4-3.9,20.9-11.7,28.6c-7.8,7.7-17.3,11.5-28.5,11.5s-20.8-3.8-28.6-11.5C-54.8,333.6-58.8,324-58.8,312.6"/>
</g>
<polygon class="st1" points="32.4,351.4 32.4,273.8 49.7,273.8 49.7,335.3 91.9,335.3 91.9,351.4 "/>
<polygon class="st1" points="100.3,351.4 100.3,273.8 117.6,273.8 117.6,335.3 159.8,335.3 159.8,351.4 "/>
<g>
	<path class="st1" d="M184.7,295.6c-4.4,4.4-6.5,10-6.5,17c0,6.9,2.2,12.6,6.5,17c4.4,4.4,9.6,6.5,15.8,6.5c6.3,0,11.6-2.2,15.9-6.5
		c4.2-4.3,6.4-10,6.4-17c0-6.9-2.2-12.6-6.6-17c-4.4-4.4-9.6-6.5-15.6-6.5C194.3,289.1,189.1,291.2,184.7,295.6 M160.2,312.6
		c0-11.2,3.9-20.7,11.7-28.5c7.8-7.8,17.3-11.6,28.6-11.6c11.2,0,20.8,3.8,28.5,11.5c7.8,7.7,11.7,17.2,11.7,28.7
		c0,11.4-3.9,20.9-11.7,28.6c-7.8,7.7-17.3,11.5-28.5,11.5c-11.2,0-20.8-3.8-28.6-11.5C164.1,333.6,160.2,324,160.2,312.6"/>
	<path class="st1" d="M282.6,289.8h-14v19h14.6c4.2,0,7.5-0.9,9.8-2.5c2.3-1.7,3.5-4.1,3.5-7.2c0-3-1-5.3-3.1-6.9
		C291.4,290.6,287.8,289.8,282.6,289.8 M268.6,351.4h-17.3v-77.6h31.6c6,0,11.1,0.7,15.4,2.1c4.3,1.4,7.6,3.3,9.8,5.8
		s3.9,5.1,4.9,7.9c1,2.8,1.5,6,1.5,9.4c0,5-1.4,9.6-4.1,13.8c-2.8,4.1-6.5,7.1-11.2,9l21.8,29.6h-20.9l-19.1-26.5h-12.4V351.4z"/>
</g>
<polygon class="st1" points="328.3,351.4 328.3,273.8 388,273.8 388,289.8 345.6,289.8 345.6,304.3 385.2,304.3 385.2,319.8 
	345.6,319.8 345.6,335.3 389,335.3 389,351.4 "/>
</svg>
